<svg xmlns="http://www.w3.org/2000/svg" id="Layer_1" data-name="Layer 1" viewBox="0 0 198 98"><defs><style>.cls-1{fill:#bcbdb6;}.cls-2{fill:#716e65;}.cls-3{fill:#89837b;}</style></defs><path class="cls-1" d="M0,0H.1C8.2,7.9,16.2,15.9,24.2,23.9,16.1,31.7,8.4,39.9,0,47.5Z"></path><path class="cls-2" d="M.1,0H49.8c0,16.4-.1,32.7,0,49.1C66.1,32.8,82.4,16.3,98.8,0h.1c0,32.7-.1,65.3,0,98h-.4C74,73,48.9,48.6,24.2,23.9,16.2,15.9,8.2,7.9.1,0Z"></path><path class="cls-3" d="M24.2,23.9C48.9,48.6,74,73,98.5,98h-45Q26.7,73.1,0,47.9v-.4C8.4,39.9,16.1,31.7,24.2,23.9Z"></path><path class="cls-2" d="M142.9,46.1l-1.7-4.6h-7.6L132,46.1h-1l6-16.6h.9l6,16.6Zm-5.5-15.3L134,40.4h6.8Z"></path><path class="cls-2" d="M156.6,46.1l-9.1-14.7V46.1h-.9V29.6h.9L156.4,44V29.6h.9V46.1Z"></path><path class="cls-2" d="M171.7,41.1a7.2,7.2,0,0,1-1.4,2.6,6,6,0,0,1-2.1,1.8,6.7,6.7,0,0,1-2.8.6h-4.3V29.6h4.3a6.7,6.7,0,0,1,2.8.6,7.8,7.8,0,0,1,3.5,4.4,8.6,8.6,0,0,1,.5,3.2h0A8.6,8.6,0,0,1,171.7,41.1Zm-.5-3.2a8.6,8.6,0,0,0-.4-2.8,6.1,6.1,0,0,0-1.1-2.3,7,7,0,0,0-1.9-1.5,4.8,4.8,0,0,0-2.4-.6h-3.3V45h3.3a6,6,0,0,0,2.4-.5,7,7,0,0,0,1.9-1.5,6.1,6.1,0,0,0,1.1-2.3,8.6,8.6,0,0,0,.4-2.8Z"></path><path class="cls-2" d="M184.7,46.1l-4.1-6.8h-4.2v6.8h-.9V29.6h5.4a4.1,4.1,0,0,1,1.9.4,4.2,4.2,0,0,1,1.4.9,3.8,3.8,0,0,1,.9,1.5,4.1,4.1,0,0,1,.4,1.9h0a5.2,5.2,0,0,1-.3,1.8,6.4,6.4,0,0,1-.8,1.4,4,4,0,0,1-1.2,1l-1.5.5,4.3,7Zm-.2-11.8a3.6,3.6,0,0,0-.9-2.6,3.7,3.7,0,0,0-2.8-1h-4.4v7.5h4.4a4,4,0,0,0,1.5-.3l1.2-.7a4.7,4.7,0,0,0,.7-1.2,4.1,4.1,0,0,0,.3-1.6Z"></path><path class="cls-2" d="M188.8,46.1V29.6h9.1v1.1h-8.2v6.6h7.4v1.1h-7.4V45H198v1.1Zm3.7-18,1.6-3.2,1.2.7-2,2.5Z"></path><path class="cls-2" d="M118.4,36.7a4.6,4.6,0,0,1-1.7-.9,5.3,5.3,0,0,1-1.2-1.4,5.8,5.8,0,0,1-.4-1.8V29.8h10.8v2.8a5.8,5.8,0,0,1-.4,1.8,5.3,5.3,0,0,1-1.2,1.4,3.9,3.9,0,0,1-1.7.9,6.6,6.6,0,0,1-2.1.3h0A6.6,6.6,0,0,1,118.4,36.7Zm2.1-.3a5.7,5.7,0,0,0,1.8-.3,5.2,5.2,0,0,0,1.5-.7l1-1.2a4.2,4.2,0,0,0,.4-1.6V30.4h-9.3v2.2a4.1,4.1,0,0,0,.3,1.6l1,1.2a5.2,5.2,0,0,0,1.5.7,4.8,4.8,0,0,0,1.8.3Z"></path><path class="cls-2" d="M115.1,45.2l4.5-2.7V39.8h-4.5v-.7h10.8v3.5a5.1,5.1,0,0,1-.2,1.3,3.1,3.1,0,0,1-.7.9,1.8,1.8,0,0,1-.9.6,2.7,2.7,0,0,1-1.3.2h0a2.2,2.2,0,0,1-1.2-.2,2.8,2.8,0,0,1-1.5-1.2,4.2,4.2,0,0,1-.4-1l-4.6,2.7Zm7.7-.2a2.4,2.4,0,0,0,1.7-.6,2.5,2.5,0,0,0,.7-1.8V39.8h-4.9v2.8a2.9,2.9,0,0,0,.2.9,2.2,2.2,0,0,0,.5.8,1.8,1.8,0,0,0,.7.5l1.1.2Z"></path><path class="cls-2" d="M125.5,70a4.4,4.4,0,0,1-1,1.6,4.2,4.2,0,0,1-1.5,1.1,5.9,5.9,0,0,1-5.1-.4,9.4,9.4,0,0,1-2.8-2.2l.7-1.1,1.2,1.3,1.3.8,1.3.5,1.5.2a4,4,0,0,0,1.5-.3,2.5,2.5,0,0,0,1.2-.8,2.6,2.6,0,0,0,.7-1.1,4,4,0,0,0,.3-1.5h0a5.1,5.1,0,0,0-.2-1.3,2.4,2.4,0,0,0-.6-1.1l-1.3-.9-2-.7a10.2,10.2,0,0,1-2.3-.8,5.8,5.8,0,0,1-1.5-1.1,3.8,3.8,0,0,1-.9-1.5,5.4,5.4,0,0,1-.3-1.9h0a4.1,4.1,0,0,1,.4-1.9,3.9,3.9,0,0,1,1-1.6,4.5,4.5,0,0,1,1.4-1,4.1,4.1,0,0,1,1.9-.4,6.1,6.1,0,0,1,2.8.6,6.8,6.8,0,0,1,2.3,1.7l-.7,1.1a7.8,7.8,0,0,0-2.1-1.7,5.9,5.9,0,0,0-2.3-.4l-1.5.2-1.1.8a2.6,2.6,0,0,0-.7,1.1,3.5,3.5,0,0,0-.3,1.4h0a5.1,5.1,0,0,0,.2,1.3,2.4,2.4,0,0,0,.6,1.1,3,3,0,0,0,1.3.9l2.2.8a7.6,7.6,0,0,1,3.7,1.9,4.9,4.9,0,0,1,1.1,3.3h0A4.6,4.6,0,0,1,125.5,70Z"></path><path class="cls-2" d="M141.4,72.8l-1.9-5.3h-8.6L129,72.8h-1.1l6.8-19h1.1l6.8,19Zm-6.2-17.4-3.8,10.9h7.7Z"></path><path class="cls-2" d="M156.5,72.8l-6.1-9.5L146.8,68v4.8h-1.1V54h1.1V66.3L156.1,54h1.5l-6.4,8.3,6.7,10.5Z"></path><path class="cls-2" d="M160.8,72.8V54h1.1V72.8Z"></path><path class="cls-2" d="M179.1,72.8V56.4l-5.8,10.9h-.1l-5.8-10.9V72.8h-1V54h1l5.9,11.1L179.2,54h1V72.8Z"></path><path class="cls-2" d="M196.8,72.8l-1.9-5.3h-8.6l-1.9,5.3h-1.1l6.8-19h1.1l6.8,19Zm-6.2-17.4-3.8,10.9h7.7Z"></path></svg>